<?xml version="1.0" encoding="UTF-8" standalone="no"?>
<!DOCTYPE svg PUBLIC "-//W3C//DTD SVG 1.1//EN"
 "http://www.w3.org/Graphics/SVG/1.1/DTD/svg11.dtd">
<!-- Generated by graphviz version 14.1.0 (20251206.1807)
 -->
<!-- Pages: 1 -->
<svg width="470pt" height="424pt"
 viewBox="0.00 0.00 470.00 424.00" xmlns="http://www.w3.org/2000/svg" xmlns:xlink="http://www.w3.org/1999/xlink">
<g id="graph0" class="graph" transform="scale(1 1) rotate(0) translate(4 420.45)">
<polygon fill="white" stroke="none" points="-4,4 -4,-420.45 466.49,-420.45 466.49,4 -4,4"/>
<text xml:space="preserve" text-anchor="middle" x="231.25" y="-399.15" font-family="Helvetica,sans-Serif" font-size="14.00">Equity Financing Conversion</text>
<!-- 0 -->
<g id="node1" class="node">
<title>0</title>
<ellipse fill="#e8f4fd" stroke="black" cx="235.72" cy="-375.45" rx="27" ry="18"/>
<text xml:space="preserve" text-anchor="middle" x="235.72" y="-371" font-family="Helvetica,sans-Serif" font-size="11.00">initial</text>
</g>
<!-- 1 -->
<g id="node2" class="node">
<title>1</title>
<ellipse fill="#ffffff" stroke="black" cx="139.72" cy="-175.07" rx="129.05" ry="22.63"/>
<text xml:space="preserve" text-anchor="middle" x="139.72" y="-176.62" font-family="Helvetica,sans-Serif" font-size="11.00">ActorCompany OF startup must</text>
<text xml:space="preserve" text-anchor="middle" x="139.72" y="-164.62" font-family="Helvetica,sans-Serif" font-size="11.00">`Equity Financing Transaction` efts</text>
</g>
<!-- 0&#45;&gt;1 -->
<g id="edge1" class="edge">
<title>0&#45;&gt;1</title>
<path fill="none" stroke="#28a745" d="M208.66,-372.55C186.42,-369.4 156.19,-361.11 140.97,-339.45 114.05,-301.12 121.34,-244.26 129.91,-208.72"/>
<polygon fill="#28a745" stroke="#28a745" points="133.19,-210.01 132.31,-199.45 126.41,-208.25 133.19,-210.01"/>
<text xml:space="preserve" text-anchor="middle" x="229.85" y="-329.95" font-family="Helvetica,sans-Serif" font-size="10.00">ActorCompany OF startup MUST</text>
<text xml:space="preserve" text-anchor="middle" x="229.85" y="-318.7" font-family="Helvetica,sans-Serif" font-size="10.00">`Convert SAFE` issue IF issue EQUALS</text>
<text xml:space="preserve" text-anchor="middle" x="229.85" y="-307.45" font-family="Helvetica,sans-Serif" font-size="10.00">(`Cap Table Entry` OF</text>
<text xml:space="preserve" text-anchor="middle" x="229.85" y="-296.2" font-family="Helvetica,sans-Serif" font-size="10.00">(`SAFE investment`&#39;s Holder),</text>
<text xml:space="preserve" text-anchor="middle" x="229.85" y="-284.95" font-family="Helvetica,sans-Serif" font-size="10.00">(Security WITH Instrument IS</text>
<text xml:space="preserve" text-anchor="middle" x="229.85" y="-273.7" font-family="Helvetica,sans-Serif" font-size="10.00">&quot;Preference Shares&quot;</text>
<text xml:space="preserve" text-anchor="middle" x="229.85" y="-262.45" font-family="Helvetica,sans-Serif" font-size="10.00">Name IS &quot;Class A (converted from</text>
<text xml:space="preserve" text-anchor="middle" x="229.85" y="-251.2" font-family="Helvetica,sans-Serif" font-size="10.00">SAFE)&quot;</text>
<text xml:space="preserve" text-anchor="middle" x="229.85" y="-239.95" font-family="Helvetica,sans-Serif" font-size="10.00">Quantity IS Shares OF numShares,</text>
<text xml:space="preserve" text-anchor="middle" x="229.85" y="-228.7" font-family="Helvetica,sans-Serif" font-size="10.00">`SAFE Purchase Amount`))</text>
<text xml:space="preserve" text-anchor="middle" x="229.85" y="-217.45" font-family="Helvetica,sans-Serif" font-size="10.00">the rule binds `issue`</text>
</g>
<!-- 3 -->
<g id="node4" class="node">
<title>3</title>
<ellipse fill="#f8d7da" stroke="black" cx="270.72" cy="-35.72" rx="30.37" ry="30.37"/>
<ellipse fill="none" stroke="black" cx="270.72" cy="-35.72" rx="34.37" ry="34.37"/>
<text xml:space="preserve" text-anchor="middle" x="270.72" y="-31.27" font-family="Helvetica,sans-Serif" font-size="11.00">Breach</text>
</g>
<!-- 0&#45;&gt;3 -->
<g id="edge2" class="edge">
<title>0&#45;&gt;3</title>
<path fill="none" stroke="#dc3545" stroke-dasharray="5,2" d="M262.33,-370.98C281.56,-366.94 306.27,-358.21 318.72,-339.45 380.16,-246.86 358.83,-193.06 318.72,-89.44 315.52,-81.16 310.34,-73.38 304.55,-66.48"/>
<polygon fill="#dc3545" stroke="#dc3545" points="307.34,-64.35 298.01,-59.34 302.18,-69.07 307.34,-64.35"/>
<text xml:space="preserve" text-anchor="middle" x="408.12" y="-171.19" font-family="Helvetica,sans-Serif" font-size="10.00">unreachable: no WITHIN</text>
</g>
<!-- 2 -->
<g id="node3" class="node">
<title>2</title>
<ellipse fill="#d4edda" stroke="black" cx="35.72" cy="-35.72" rx="31.72" ry="31.72"/>
<ellipse fill="none" stroke="black" cx="35.72" cy="-35.72" rx="35.72" ry="35.72"/>
<text xml:space="preserve" text-anchor="middle" x="35.72" y="-31.27" font-family="Helvetica,sans-Serif" font-size="11.00">Fulfilled</text>
</g>
<!-- 1&#45;&gt;2 -->
<g id="edge3" class="edge">
<title>1&#45;&gt;2</title>
<path fill="none" stroke="#28a745" d="M62.57,-156.56C52.42,-151.08 43.28,-143.88 36.72,-134.44 26.32,-119.46 24.48,-99.84 25.84,-82.11"/>
<polygon fill="#28a745" stroke="#28a745" points="29.3,-82.64 26.96,-72.31 22.35,-81.84 29.3,-82.64"/>
<text xml:space="preserve" text-anchor="middle" x="111.72" y="-124.94" font-family="Helvetica,sans-Serif" font-size="10.00">IF all OF (GIVEN eft YIELD ((eft&#39;s</text>
<text xml:space="preserve" text-anchor="middle" x="111.72" y="-113.69" font-family="Helvetica,sans-Serif" font-size="10.00">security)&#39;s Instrument) EQUALS</text>
<text xml:space="preserve" text-anchor="middle" x="111.72" y="-102.44" font-family="Helvetica,sans-Serif" font-size="10.00">&quot;Preference Shares&quot;), efts</text>
<text xml:space="preserve" text-anchor="middle" x="111.72" y="-91.19" font-family="Helvetica,sans-Serif" font-size="10.00">the rule binds `efts`</text>
</g>
<!-- 1&#45;&gt;3 -->
<g id="edge4" class="edge">
<title>1&#45;&gt;3</title>
<path fill="none" stroke="#dc3545" stroke-dasharray="5,2" d="M168.76,-152.67C175.14,-147.17 181.53,-140.95 186.72,-134.44 200.76,-116.85 196.05,-107.14 209.97,-89.44 217.09,-80.39 225.93,-71.69 234.65,-64.07"/>
<polygon fill="#dc3545" stroke="#dc3545" points="236.69,-66.92 242.09,-57.8 232.19,-61.56 236.69,-66.92"/>
<text xml:space="preserve" text-anchor="middle" x="264.35" y="-108.07" font-family="Helvetica,sans-Serif" font-size="10.00">unreachable: no WITHIN</text>
</g>
</g>
</svg>
