<?xml version="1.0" encoding="UTF-8" standalone="no"?>
<!DOCTYPE svg PUBLIC "-//W3C//DTD SVG 1.1//EN"
 "http://www.w3.org/Graphics/SVG/1.1/DTD/svg11.dtd">
<!-- Generated by graphviz version 14.1.0 (20251206.1807)
 -->
<!-- Pages: 1 -->
<svg width="602pt" height="330pt"
 viewBox="0.00 0.00 602.00 330.00" xmlns="http://www.w3.org/2000/svg" xmlns:xlink="http://www.w3.org/1999/xlink">
<g id="graph0" class="graph" transform="scale(1 1) rotate(0) translate(4 325.68)">
<polygon fill="white" stroke="none" points="-4,4 -4,-325.68 597.97,-325.68 597.97,4 -4,4"/>
<text xml:space="preserve" text-anchor="middle" x="296.99" y="-304.38" font-family="Helvetica,sans-Serif" font-size="14.00">Pay Until Zero</text>
<!-- 0 -->
<g id="node1" class="node">
<title>0</title>
<polygon fill="#fde8cc" stroke="black" points="254.72,-298.68 196.72,-266.68 254.72,-234.68 312.72,-266.68 254.72,-298.68"/>
<text xml:space="preserve" text-anchor="middle" x="254.72" y="-268.23" font-family="Helvetica,sans-Serif" font-size="11.00">initial</text>
<text xml:space="preserve" text-anchor="middle" x="254.72" y="-256.23" font-family="Helvetica,sans-Serif" font-size="11.00">ONE OF</text>
</g>
<!-- 1 -->
<g id="node2" class="node">
<title>1</title>
<ellipse fill="#d4edda" stroke="black" cx="35.72" cy="-151.71" rx="31.72" ry="31.72"/>
<ellipse fill="none" stroke="black" cx="35.72" cy="-151.71" rx="35.72" ry="35.72"/>
<text xml:space="preserve" text-anchor="middle" x="35.72" y="-147.26" font-family="Helvetica,sans-Serif" font-size="11.00">Fulfilled</text>
</g>
<!-- 0&#45;&gt;1 -->
<g id="edge1" class="edge">
<title>0&#45;&gt;1</title>
<path fill="none" stroke="#e8850c" stroke-dasharray="1,5" d="M207.93,-260C155.12,-252.65 73.73,-238.19 51.97,-216.68 46.89,-211.65 43.32,-205.28 40.83,-198.52"/>
<polygon fill="#e8850c" stroke="#e8850c" points="44.26,-197.81 38.15,-189.16 37.53,-199.74 44.26,-197.81"/>
<text xml:space="preserve" text-anchor="middle" x="149.85" y="-207.18" font-family="Helvetica,sans-Serif" font-size="10.00"> IF (symtab&#39;s total) EQUALS (symtab&#39;s paid)</text>
</g>
<!-- 2 -->
<g id="node3" class="node">
<title>2</title>
<ellipse fill="#ffffff" stroke="black" cx="378.72" cy="-151.71" rx="61.94" ry="18"/>
<text xml:space="preserve" text-anchor="middle" x="378.72" y="-147.26" font-family="Helvetica,sans-Serif" font-size="11.00">Buyer must pay ...</text>
</g>
<!-- 0&#45;&gt;2 -->
<g id="edge2" class="edge">
<title>0&#45;&gt;2</title>
<path fill="none" stroke="#e8850c" stroke-dasharray="1,5" d="M249.12,-237.33C248.49,-226.53 249.77,-214.62 255.97,-205.43 269.56,-185.26 292.61,-172.77 315.08,-165.05"/>
<polygon fill="#e8850c" stroke="#e8850c" points="316.08,-168.4 324.59,-162.08 314,-161.72 316.08,-168.4"/>
<text xml:space="preserve" text-anchor="middle" x="368.85" y="-207.18" font-family="Helvetica,sans-Serif" font-size="10.00"> IF NOT ((symtab&#39;s total) EQUALS (symtab&#39;s paid))</text>
</g>
<!-- 2&#45;&gt;0 -->
<g id="edge3" class="edge">
<title>2&#45;&gt;0</title>
<path fill="none" stroke="#28a745" d="M426.21,-163.58C462,-174.01 501.75,-191.86 481.72,-216.68 461.29,-241.99 376.44,-254.86 316.49,-260.91"/>
<polygon fill="#28a745" stroke="#28a745" points="316.35,-257.41 306.74,-261.86 317.03,-264.38 316.35,-257.41"/>
<text xml:space="preserve" text-anchor="middle" x="540.35" y="-207.18" font-family="Helvetica,sans-Serif" font-size="10.00">Buyer MUST pay ... [30]</text>
</g>
<!-- 3 -->
<g id="node4" class="node">
<title>3</title>
<ellipse fill="#f8d7da" stroke="black" cx="378.72" cy="-34.37" rx="30.37" ry="30.37"/>
<ellipse fill="none" stroke="black" cx="378.72" cy="-34.37" rx="34.37" ry="34.37"/>
<text xml:space="preserve" text-anchor="middle" x="378.72" y="-29.92" font-family="Helvetica,sans-Serif" font-size="11.00">Breach</text>
</g>
<!-- 2&#45;&gt;3 -->
<g id="edge4" class="edge">
<title>2&#45;&gt;3</title>
<path fill="none" stroke="#dc3545" stroke-dasharray="5,2" d="M378.72,-133.69C378.72,-119.68 378.72,-99.15 378.72,-80.47"/>
<polygon fill="#dc3545" stroke="#dc3545" points="382.22,-80.67 378.72,-70.67 375.22,-80.67 382.22,-80.67"/>
<text xml:space="preserve" text-anchor="middle" x="394.85" y="-88.49" font-family="Helvetica,sans-Serif" font-size="10.00">timeout</text>
</g>
</g>
</svg>
