<?xml version="1.0" encoding="UTF-8" standalone="no"?>
<!DOCTYPE svg PUBLIC "-//W3C//DTD SVG 1.1//EN"
 "http://www.w3.org/Graphics/SVG/1.1/DTD/svg11.dtd">
<!-- Generated by graphviz version 14.1.0 (20251206.1807)
 -->
<!-- Pages: 1 -->
<svg width="295pt" height="269pt"
 viewBox="0.00 0.00 295.00 269.00" xmlns="http://www.w3.org/2000/svg" xmlns:xlink="http://www.w3.org/1999/xlink">
<g id="graph0" class="graph" transform="scale(1 1) rotate(0) translate(4 264.94)">
<polygon fill="white" stroke="none" points="-4,4 -4,-264.94 291.11,-264.94 291.11,4 -4,4"/>
<text xml:space="preserve" text-anchor="middle" x="143.55" y="-243.64" font-family="Helvetica,sans-Serif" font-size="14.00">serviceContract</text>
<!-- 0 -->
<g id="node1" class="node">
<title>0</title>
<ellipse fill="#e8f4fd" stroke="black" cx="149.6" cy="-219.94" rx="27" ry="18"/>
<text xml:space="preserve" text-anchor="middle" x="149.6" y="-215.49" font-family="Helvetica,sans-Serif" font-size="11.00">initial</text>
</g>
<!-- 1 -->
<g id="node2" class="node">
<title>1</title>
<ellipse fill="#ffffff" stroke="black" cx="46.6" cy="-136.69" rx="46.6" ry="18"/>
<text xml:space="preserve" text-anchor="middle" x="46.6" y="-132.24" font-family="Helvetica,sans-Serif" font-size="11.00">paymentDue</text>
</g>
<!-- 0&#45;&gt;1 -->
<g id="edge1" class="edge">
<title>0&#45;&gt;1</title>
<path fill="none" stroke="#28a745" d="M122.52,-218.08C98.13,-215.69 63.56,-207.94 46.35,-183.94 42.67,-178.8 41.28,-172.45 41.11,-166.11"/>
<polygon fill="#28a745" stroke="#28a745" points="44.58,-166.73 41.81,-156.51 37.59,-166.23 44.58,-166.73"/>
<text xml:space="preserve" text-anchor="middle" x="143.48" y="-174.44" font-family="Helvetica,sans-Serif" font-size="10.00">serviceProvider MUST ProvideService ... [7]</text>
</g>
<!-- 3 -->
<g id="node4" class="node">
<title>3</title>
<ellipse fill="#f8d7da" stroke="black" cx="230.6" cy="-35.72" rx="30.37" ry="30.37"/>
<ellipse fill="none" stroke="black" cx="230.6" cy="-35.72" rx="34.37" ry="34.37"/>
<text xml:space="preserve" text-anchor="middle" x="230.6" y="-31.27" font-family="Helvetica,sans-Serif" font-size="11.00">Breach</text>
</g>
<!-- 0&#45;&gt;3 -->
<g id="edge2" class="edge">
<title>0&#45;&gt;3</title>
<path fill="none" stroke="#dc3545" stroke-dasharray="5,2" d="M176.52,-216.61C197.84,-213.18 226.33,-204.73 240.6,-183.94 261.56,-153.43 255.68,-110.47 246.58,-78.83"/>
<polygon fill="#dc3545" stroke="#dc3545" points="250.02,-78.11 243.71,-69.6 243.33,-80.18 250.02,-78.11"/>
<text xml:space="preserve" text-anchor="middle" x="270.98" y="-132.82" font-family="Helvetica,sans-Serif" font-size="10.00">timeout</text>
</g>
<!-- 2 -->
<g id="node3" class="node">
<title>2</title>
<ellipse fill="#d4edda" stroke="black" cx="46.6" cy="-35.72" rx="31.72" ry="31.72"/>
<ellipse fill="none" stroke="black" cx="46.6" cy="-35.72" rx="35.72" ry="35.72"/>
<text xml:space="preserve" text-anchor="middle" x="46.6" y="-31.27" font-family="Helvetica,sans-Serif" font-size="11.00">Fulfilled</text>
</g>
<!-- 1&#45;&gt;2 -->
<g id="edge3" class="edge">
<title>1&#45;&gt;2</title>
<path fill="none" stroke="#28a745" d="M46.6,-118.45C46.6,-108.61 46.6,-95.77 46.6,-83.18"/>
<polygon fill="#28a745" stroke="#28a745" points="50.1,-83.3 46.6,-73.3 43.1,-83.3 50.1,-83.3"/>
<text xml:space="preserve" text-anchor="middle" x="114.48" y="-91.19" font-family="Helvetica,sans-Serif" font-size="10.00">client MUST PayMoney ... [30]</text>
</g>
<!-- 1&#45;&gt;3 -->
<g id="edge4" class="edge">
<title>1&#45;&gt;3</title>
<path fill="none" stroke="#dc3545" stroke-dasharray="5,2" d="M92.1,-132.12C120.7,-128.05 157.23,-119.33 184.6,-100.69 193.92,-94.35 202,-85.46 208.68,-76.33"/>
<polygon fill="#dc3545" stroke="#dc3545" points="211.57,-78.31 214.28,-68.07 205.77,-74.38 211.57,-78.31"/>
<text xml:space="preserve" text-anchor="middle" x="213.69" y="-91.19" font-family="Helvetica,sans-Serif" font-size="10.00">timeout</text>
</g>
</g>
</svg>
