<?xml version="1.0" encoding="UTF-8" standalone="no"?>
<!DOCTYPE svg PUBLIC "-//W3C//DTD SVG 1.1//EN"
 "http://www.w3.org/Graphics/SVG/1.1/DTD/svg11.dtd">
<!-- Generated by graphviz version 14.1.0 (20251206.1807)
 -->
<!-- Pages: 1 -->
<svg width="307pt" height="269pt"
 viewBox="0.00 0.00 307.00 269.00" xmlns="http://www.w3.org/2000/svg" xmlns:xlink="http://www.w3.org/1999/xlink">
<g id="graph0" class="graph" transform="scale(1 1) rotate(0) translate(4 264.94)">
<polygon fill="white" stroke="none" points="-4,4 -4,-264.94 302.99,-264.94 302.99,4 -4,4"/>
<text xml:space="preserve" text-anchor="middle" x="149.49" y="-243.64" font-family="Helvetica,sans-Serif" font-size="14.00">wedding ceremony</text>
<!-- 0 -->
<g id="node1" class="node">
<title>0</title>
<ellipse fill="#e8f4fd" stroke="black" cx="182.57" cy="-219.94" rx="27" ry="18"/>
<text xml:space="preserve" text-anchor="middle" x="182.57" y="-215.49" font-family="Helvetica,sans-Serif" font-size="11.00">initial</text>
</g>
<!-- 1 -->
<g id="node2" class="node">
<title>1</title>
<ellipse fill="#ffffff" stroke="black" cx="97.57" cy="-136.69" rx="97.57" ry="18"/>
<text xml:space="preserve" text-anchor="middle" x="97.57" y="-132.24" font-family="Helvetica,sans-Serif" font-size="11.00">Spouse2 must exchange vows</text>
</g>
<!-- 0&#45;&gt;1 -->
<g id="edge1" class="edge">
<title>0&#45;&gt;1</title>
<path fill="none" stroke="#28a745" d="M156.06,-215.62C136.54,-211.64 111.22,-202.94 98.32,-183.94 94.76,-178.71 93.33,-172.32 93.04,-165.98"/>
<polygon fill="#28a745" stroke="#28a745" points="96.51,-166.55 93.48,-156.39 89.52,-166.22 96.51,-166.55"/>
<text xml:space="preserve" text-anchor="middle" x="175.94" y="-174.44" font-family="Helvetica,sans-Serif" font-size="10.00">Spouse1 MUST exchange vows [1]</text>
</g>
<!-- 3 -->
<g id="node4" class="node">
<title>3</title>
<ellipse fill="#f8d7da" stroke="black" cx="243.57" cy="-35.72" rx="30.37" ry="30.37"/>
<ellipse fill="none" stroke="black" cx="243.57" cy="-35.72" rx="34.37" ry="34.37"/>
<text xml:space="preserve" text-anchor="middle" x="243.57" y="-31.27" font-family="Helvetica,sans-Serif" font-size="11.00">Breach</text>
</g>
<!-- 0&#45;&gt;3 -->
<g id="edge2" class="edge">
<title>0&#45;&gt;3</title>
<path fill="none" stroke="#dc3545" stroke-dasharray="5,2" d="M208.24,-213.54C224.28,-208.7 243.7,-199.81 253.57,-183.94 272.91,-152.85 267.53,-110.57 259.01,-79.3"/>
<polygon fill="#dc3545" stroke="#dc3545" points="262.39,-78.37 256.2,-69.77 255.67,-80.35 262.39,-78.37"/>
<text xml:space="preserve" text-anchor="middle" x="282.86" y="-132.82" font-family="Helvetica,sans-Serif" font-size="10.00">timeout</text>
</g>
<!-- 2 -->
<g id="node3" class="node">
<title>2</title>
<ellipse fill="#d4edda" stroke="black" cx="42.57" cy="-35.72" rx="31.72" ry="31.72"/>
<ellipse fill="none" stroke="black" cx="42.57" cy="-35.72" rx="35.72" ry="35.72"/>
<text xml:space="preserve" text-anchor="middle" x="42.57" y="-31.27" font-family="Helvetica,sans-Serif" font-size="11.00">Fulfilled</text>
</g>
<!-- 1&#45;&gt;2 -->
<g id="edge3" class="edge">
<title>1&#45;&gt;2</title>
<path fill="none" stroke="#28a745" d="M61.49,-119.56C54.23,-114.58 47.55,-108.34 43.32,-100.69 40.3,-95.22 38.57,-89.07 37.71,-82.8"/>
<polygon fill="#28a745" stroke="#28a745" points="41.21,-82.77 37.1,-73 34.22,-83.2 41.21,-82.77"/>
<text xml:space="preserve" text-anchor="middle" x="120.94" y="-91.19" font-family="Helvetica,sans-Serif" font-size="10.00">Spouse2 MUST exchange vows [1]</text>
</g>
<!-- 1&#45;&gt;3 -->
<g id="edge4" class="edge">
<title>1&#45;&gt;3</title>
<path fill="none" stroke="#dc3545" stroke-dasharray="5,2" d="M156.75,-122.04C171.32,-116.9 186.26,-109.96 198.57,-100.69 207.42,-94.02 215.2,-85.1 221.7,-76.04"/>
<polygon fill="#dc3545" stroke="#dc3545" points="224.5,-78.15 227.15,-67.9 218.68,-74.26 224.5,-78.15"/>
<text xml:space="preserve" text-anchor="middle" x="225.72" y="-91.19" font-family="Helvetica,sans-Serif" font-size="10.00">timeout</text>
</g>
</g>
</svg>
